<?xml version="1.0" encoding="UTF-8" standalone="no"?>
<!-- Generator: Adobe Illustrator 19.2.1, SVG Export Plug-In . SVG Version: 6.00 Build 0)  -->
<svg id="Layer_1" xmlns:rdf="http://www.w3.org/1999/02/22-rdf-syntax-ns#" style="enable-background:new 0 0 613.7 458.5" xmlns="http://www.w3.org/2000/svg" xml:space="preserve" viewBox="0 0 613.7 458.5" version="1.1" y="0px" x="0px" xmlns:cc="http://creativecommons.org/ns#" xmlns:dc="http://purl.org/dc/elements/1.1/"><title id="title4571">Wikimedia Argentina (logo negro)</title><metadata id="metadata69"><rdf:RDF><cc:Work rdf:about=""><dc:format>image/svg+xml</dc:format><dc:type rdf:resource="http://purl.org/dc/dcmitype/StillImage"/><dc:title>Wikimedia Argentina (logo negro)</dc:title><dc:rights><cc:Agent><dc:title>cc-by-sa 3.0</dc:title></cc:Agent></dc:rights></cc:Work></rdf:RDF></metadata><style id="style2" type="text/css">
	.st0{display:none;}
	.st1{fill:#FFFFFF;}
</style><g id="g44"><g id="g42"><path id="path4" d="m56 338l11.9-38.6h15.6l11.8 38.6 13.3-38.6h16.2l-23.4 67.1h-11.1l-14.7-46.7-14.6 46.7h-11.1l-23.4-67.1h16.2l13.3 38.6z"/><path id="path6" d="m132.9 299.4h15v67.1h-15v-67.1z"/><path id="path8" d="m164.4 299.4h15v27.6l25.3-27.6h18.5l-26.7 29.7c2.3 3.2 6.6 9.2 12.8 17.9s10.8 15.2 13.9 19.5h-17.5l-19.6-26.5-6.7 7.5v19h-15v-67.1z"/><path id="path10" d="m232.5 299.4h15v67.1h-15v-67.1z"/><path id="path12" d="m324.1 324.3l-18.1 36.7h-9l-18-36.7v42.2h-15v-67.1h20.3l17.3 36.9 17.4-36.9h20.2v67.1h-15v-42.2z"/><path id="path14" d="m404 299.4v13.3h-33.4v13.8h30v12.8h-30v13.9h34.4v13.2h-49.4v-67.1h48.4z"/><path id="path16" d="m469.6 308.2c6.4 5.9 9.6 14 9.6 24.4s-3.1 18.7-9.4 24.8c-6.2 6.1-15.8 9.1-28.6 9.1h-22.9v-67.1h23.7c12.1 0 21.2 3 27.6 8.8zm-11 39.9c3.7-3.5 5.5-8.5 5.5-15.1s-1.8-11.7-5.5-15.2c-3.7-3.6-9.3-5.3-16.9-5.3h-8.4v40.8h9.5c6.9 0 12.2-1.7 15.8-5.2z"/><path id="path18" d="m492.2 299.4h15v67.1h-15v-67.1z"/><path id="path20" d="m571.5 366.5l-6.2-14.5h-28.1l-6.2 14.5h-15.9l29-67.1h14.5l29 67.1h-16.1zm-20.3-47.1l-8.4 19.5h16.8l-8.4-19.5z"/></g></g><g id="g53" class="st0"><path id="path46" d="m317.3 216c35.9-5.1 63.5-35.9 63.5-73.3 0-22.7-10.2-43-26.3-56.5l-37.3 37.3v92.5z" class="st1"/><path id="path48" d="m296.4 216v-92.5l-37.3-37.3c-16.1 13.6-26.3 33.9-26.3 56.5 0.1 37.3 27.7 68.2 63.6 73.3z" class="st1"/><path id="path50" d="m371.2 78.4c17.2 17.2 26.6 40 26.6 64.3s-9.5 47.1-26.6 64.3c-17.2 17.2-40 26.6-64.3 26.6s-47.1-9.5-64.3-26.6-26.6-40-26.6-64.3c0-24.3 9.5-47.1 26.6-64.3 1.5-1.5 3-2.9 4.5-4.2l-20.8-20.8c-1.5 1.4-3 2.8-4.5 4.3-11 11-19.7 23.9-25.8 38.2-6.3 14.8-9.5 30.6-9.5 46.8s3.2 32 9.5 46.8c6.1 14.3 14.7 27.2 25.8 38.2 11 11 23.9 19.7 38.2 25.8 14.8 6.3 30.6 9.5 46.8 9.5s32-3.2 46.8-9.5c14.3-6.1 27.2-14.7 38.2-25.8 11-11 19.7-23.9 25.8-38.2 6.3-14.8 9.5-30.6 9.5-46.8s-3.2-32-9.5-46.8c-6.1-14.3-14.7-27.2-25.8-38.2-1.5-1.5-3-2.9-4.5-4.3l-20.8 20.8c1.7 1.3 3.2 2.7 4.7 4.2z" class="st1"/><circle id="red_circle_52_" cy="59.3" cx="306.9" r="37.5" class="st1"/></g><g id="g62"><path id="path55" d="m317.3 216c35.9-5.1 63.5-35.9 63.5-73.3 0-22.7-10.2-43-26.3-56.5l-37.3 37.3v92.5z"/><path id="path57" d="m296.4 216v-92.5l-37.3-37.3c-16.1 13.6-26.3 33.9-26.3 56.5 0.1 37.3 27.7 68.2 63.6 73.3z"/><path id="path59" d="m371.2 78.4c17.2 17.2 26.6 40 26.6 64.3s-9.5 47.1-26.6 64.3c-17.2 17.2-40 26.6-64.3 26.6s-47.1-9.5-64.3-26.6-26.6-40-26.6-64.3c0-24.3 9.5-47.1 26.6-64.3 1.5-1.5 3-2.9 4.5-4.2l-20.8-20.8c-1.5 1.4-3 2.8-4.5 4.3-11 11-19.7 23.9-25.8 38.2-6.3 14.8-9.5 30.6-9.5 46.8s3.2 32 9.5 46.8c6.1 14.3 14.7 27.2 25.8 38.2 11 11 23.9 19.7 38.2 25.8 14.8 6.3 30.6 9.5 46.8 9.5s32-3.2 46.8-9.5c14.3-6.1 27.2-14.7 38.2-25.8 11-11 19.7-23.9 25.8-38.2 6.3-14.8 9.5-30.6 9.5-46.8s-3.2-32-9.5-46.8c-6.1-14.3-14.7-27.2-25.8-38.2-1.5-1.5-3-2.9-4.5-4.3l-20.8 20.8c1.7 1.3 3.2 2.7 4.7 4.2z"/><path id="red_circle_46_" style="" d="m344.4 59.3a37.5 37.5 0 0 1 -37.5 37.5 37.5 37.5 0 0 1 -37.5 -37.5 37.5 37.5 0 0 1 37.5 -37.5 37.5 37.5 0 0 1 37.5 37.5z"/></g><g id="text858" aria-label="CHILE" style="font-variant-ligatures:normal;font-variant-numeric:normal;font-variant-caps:normal;font-feature-settings:normal"><path id="path967" style="" d="m233.19 430.43q-4.24 0-7.68-1.84-3.4-1.88-5.36-5.16-1.92-3.28-1.92-7.4t1.96-7.4 5.36-5.12q3.44-1.88 7.68-1.88 3.44 0 6.28 1.2t4.8 3.48l-3.36 3.16q-3.04-3.28-7.48-3.28-2.88 0-5.16 1.28-2.28 1.24-3.56 3.48t-1.28 5.08 1.28 5.08 3.56 3.52q2.28 1.24 5.16 1.24 4.44 0 7.48-3.32l3.36 3.2q-1.96 2.28-4.84 3.48-2.84 1.2-6.28 1.2z"/><path id="path969" style="" d="m288.15 402.03v28h-5.2v-12h-14.48v12h-5.2v-28h5.2v11.56h14.48v-11.56z"/><path id="path971" style="" d="m309.66 402.03h5.2v28h-5.2z"/><path id="path973" style="" d="m336.36 402.03h5.2v23.6h14.64v4.4h-19.84z"/><path id="path975" style="" d="m395.32 425.67v4.36h-21v-28h20.44v4.36h-15.24v7.28h13.52v4.28h-13.52v7.72z"/></g><style id="style862" type="text/css">
	.st0{display:none;}
	.st1{fill:#FFFFFF;}
</style></svg>
